# xmcd CD database file generated by OrangeCD 5.2
#
# Track frame offsets:
#	150
#	14538
#	28849
#	45519
#	60112
#	74367
#	86576
#	100074
#	117898
#	135072
#	149082
#	162864
#
# Disc length: 2500 seconds
#
# Revision: 0
# Processed by: cddbd v1.5.1PL0 Copyright (c) Steve Scherf et al.
# Submitted via: OrangeCD 5.2
#
DISCID=9709c20c
DTITLE=Jesse Dayton - Country Soul Brother
DYEAR=2004
DGENRE=Country
TTITLE0=Country Soul Brother
TTITLE1=All Because of You
TTITLE2=Ain't Grace Amazing
TTITLE3=Just What I Needed
TTITLE4=Daily Ritual
TTITLE5=Jesus Pick Me Up
TTITLE6=It Won't Always Be Like This
TTITLE7=Tall Walkin' Texas Trash
TTITLE8=Just to Get You Off My Mind
TTITLE9=Moravia
TTITLE10=One of Them Days
TTITLE11=Talkin' Bobby Dale's Hard Luck Blues
EXTD=
EXTT0=
EXTT1=
EXTT2=
EXTT3=
EXTT4=
EXTT5=
EXTT6=
EXTT7=
EXTT8=
EXTT9=
EXTT10=
EXTT11=
PLAYORDER=
